<svg width="32" height="33" viewBox="0 0 32 33" fill="none" xmlns="http://www.w3.org/2000/svg">
<path d="M26.0978 22.391C24.1422 24.0996 22.5778 27.8015 22.5778 27.8015C22.5778 27.8015 20.1245 23.7436 17.9911 22.3554C14.6134 20.1841 13.1556 20.1485 13.1556 20.1485V21.8571C13.1556 21.8571 15.9289 22.2842 17.3156 23.4945C20.2311 26.0217 22.5778 30.0795 22.5778 30.0795C22.5778 30.0795 24.6756 25.4166 26.7022 23.8148C29.5467 21.6079 32 21.8571 32 21.8571V20.1485C32 20.1129 28.48 20.3265 26.0978 22.391Z" fill="#CBB26A"/>
<path d="M13.1556 27.1963C10.88 25.9149 6.8267 25.6657 6.8267 25.6657C6.8267 25.6657 9.92003 22.0706 10.56 19.6146C11.5556 15.7703 11.0934 14.3821 11.0934 14.3821L9.45781 14.9516C9.45781 14.9516 9.92003 17.6924 9.24448 19.3654C7.7867 22.8893 4.62225 26.4132 4.62225 26.4132C4.62225 26.4132 9.81336 26.876 11.9823 28.2286C15.04 30.1507 15.6089 32.5 15.6089 32.5L17.2445 31.9305C17.2445 31.9661 15.8934 28.7625 13.1556 27.1963Z" fill="#CBB26A"/>
<path d="M10.7733 11.8192C14.7911 11.4989 15.9644 10.609 15.9644 10.609L14.8978 9.25636C14.8978 9.25636 12.4444 10.5734 10.5956 10.4666C6.72 10.253 2.31111 8.47327 2.31111 8.47327C2.31111 8.47327 3.55556 13.4566 2.95111 15.9126C2.09778 19.4366 0 20.718 0 20.718L1.06667 22.0706C1.06667 22.0706 3.73333 19.7569 4.30222 16.6957C4.76444 14.1685 3.69778 10.2886 3.69778 10.2886C3.69778 10.2886 8.17778 12.0328 10.7733 11.8192Z" fill="#CBB26A"/>
<path d="M11.52 5.05617C14.1156 4.66463 17.4578 2.42214 17.4578 2.42214C17.4578 2.42214 17.2444 7.12069 18.3111 9.46997C19.9467 13.1007 21.1556 13.9194 21.1556 13.9194L22.1156 12.4956C22.1156 12.4956 20.0178 10.6446 19.52 8.86485C18.4533 5.19855 18.7378 0.5 18.7378 0.5C18.7378 0.5 14.3644 3.27642 11.8044 3.52558C8.17778 3.88154 6.25778 2.35095 6.25778 2.35095L5.29778 3.81034C5.29778 3.77475 8.39111 5.51891 11.52 5.05617Z" fill="#CBB26A"/>
<path d="M21.3333 20.2553C21.3333 20.2553 22.4355 17.6925 23.9644 16.6602C27.1644 14.4889 31.7511 13.2075 31.7511 13.2075C31.7511 13.2075 27.6622 10.0395 26.5955 7.72583C25.1022 4.48667 25.92 2.17299 25.92 2.17299L24.2133 1.74585C24.2133 1.74585 23.5378 5.16298 24.9955 7.9394C26.2044 10.2175 29.44 12.638 29.44 12.638C29.44 12.638 24.8889 13.9906 22.9689 15.7347C20.0178 18.44 19.6266 19.8282 19.6266 19.8282L21.3333 20.2553Z" fill="#CBB26A"/>
</svg>
