
        <svg xmlns="http://www.w3.org/2000/svg" xmlns:xlink="http://www.w3.org/1999/xlink" version="1.1" width="3162.1908395018063" 
        height="572.4500866917948" viewBox="0 0 3162.1908395018063 572.4500866917948">
			
			<g transform="scale(8.109541975090316) translate(10, 10)">
				<defs id="SvgjsDefs5121"><linearGradient id="SvgjsLinearGradient5128"><stop id="SvgjsStop5129" stop-color="#8f5e25" offset="0"></stop><stop id="SvgjsStop5130" stop-color="#fbf4a1" offset="0.5"></stop><stop id="SvgjsStop5131" stop-color="#8f5e25" offset="1"></stop></linearGradient><linearGradient id="SvgjsLinearGradient5132"><stop id="SvgjsStop5133" stop-color="#8f5e25" offset="0"></stop><stop id="SvgjsStop5134" stop-color="#fbf4a1" offset="0.5"></stop><stop id="SvgjsStop5135" stop-color="#8f5e25" offset="1"></stop></linearGradient></defs><g id="SvgjsG5122" featureKey="symbolFeature-0" transform="matrix(0.5451713395638629,0,0,0.5451713395638629,-2.7258561779034096,-1.7258566978193146)" fill="url(#SvgjsLinearGradient5128)"><g xmlns="http://www.w3.org/2000/svg"><path d="M78.4,66.5c-5.5,4.8-9.9,15.2-9.9,15.2s-6.9-11.4-12.9-15.3c-9.5-6.1-13.6-6.2-13.6-6.2V65c0,0,7.8,1.2,11.7,4.6   c8.2,7.1,14.8,18.5,14.8,18.5S74.4,75,80.1,70.5C88.1,64.3,95,65,95,65v-4.8C95,60.1,85.1,60.7,78.4,66.5z"></path><path d="M42,80c-6.4-3.6-17.8-4.3-17.8-4.3s8.7-10.1,10.5-17C37.5,47.9,36.2,44,36.2,44l-4.6,1.6c0,0,1.3,7.7-0.6,12.4   c-4.1,9.9-13,19.8-13,19.8s14.6,1.3,20.7,5.1c8.6,5.4,10.2,12,10.2,12l4.6-1.6C53.5,93.4,49.7,84.4,42,80z"></path><path d="M35.3,36.8c11.3-0.9,14.6-3.4,14.6-3.4l-3-3.8c0,0-6.9,3.7-12.1,3.4c-10.9-0.6-23.3-5.6-23.3-5.6s3.5,14,1.8,20.9   C10.9,58.2,5,61.8,5,61.8l3,3.8c0,0,7.5-6.5,9.1-15.1c1.3-7.1-1.7-18-1.7-18S28,37.4,35.3,36.8z"></path><path d="M37.4,17.8c7.3-1.1,16.7-7.4,16.7-7.4s-0.6,13.2,2.4,19.8c4.6,10.2,8,12.5,8,12.5l2.7-4c0,0-5.9-5.2-7.3-10.2   C56.9,18.2,57.7,5,57.7,5s-12.3,7.8-19.5,8.5c-10.2,1-15.6-3.3-15.6-3.3l-2.7,4.1C19.9,14.2,28.6,19.1,37.4,17.8z"></path><path d="M65,60.5c0,0,3.1-7.2,7.4-10.1c9-6.1,21.9-9.7,21.9-9.7s-11.5-8.9-14.5-15.4c-4.2-9.1-1.9-15.6-1.9-15.6l-4.8-1.2   c0,0-1.9,9.6,2.2,17.4c3.4,6.4,12.5,13.2,12.5,13.2S75,42.9,69.6,47.8c-8.3,7.6-9.4,11.5-9.4,11.5L65,60.5z"></path></g></g><g id="SvgjsG5123" featureKey="nameFeature-0" transform="matrix(0.5724358784036468,0,0,0.5724358784036468,68.11673158592903,-4.5393402619991825)" fill="#ffffff"><path d="M9.3164 8.594000000000001 l0 -0.019531 c4.3164 0 8.3984 1.543 11.484 4.6289 c5.625 5.625 5.625 16.582 0 22.188 c-3.0859 3.0664 -7.168 4.6094 -11.484 4.6094 l-7.7734 0 l0 -31.406 l7.7734 0 z M9.3359 33.6914 l0.019531 0 c2.5781 0 4.9609 -0.72266 6.7969 -2.5586 s2.5586 -4.2578 2.5586 -6.8555 c0 -2.5781 -0.72266 -5 -2.5781 -6.8555 c-1.8359 -1.8555 -4.2578 -2.5781 -6.8359 -2.5781 l-1.4453 0 l0 18.848 l1.4844 0 z M23.677734375 8.515999999999998 l7.1484 0 l5.4297 9.9805 l5.4297 -9.9805 l7.168 0 l-9.4531 17.363 l0 14.121 l-6.2891 0 l0 -14.121 z M52.04296875 7.93 l18.887 17.988 l0 -17.402 l6.3086 0 l0 32.07 l-18.887 -18.008 l0 17.422 l-6.3086 0 l0 -32.07 z M91.912484375 29.59 l5.5664 0 l-2.7734 -6.543 z M89.333984375 35.1562 l-0.039063 -0.019531 c-0.70313 1.6016 -1.4258 3.1836 -2.1484 4.7852 l-6.7773 0 l14.277 -31.992 l14.316 31.992 l-6.7969 0 c-0.70313 -1.582 -1.4063 -3.1836 -2.1094 -4.7656 l-10.723 0 z M112.2109375 7.93 l15.352 21.055 l15.352 -21.055 l0 32.07 l-6.3086 0 l0 -12.988 l-9.043 12.48 l-9.043 -12.48 l0 12.988 l-6.3086 0 l0 -32.07 z M146.884765625 40 l0 -31.484 l6.3086 0 l0 31.484 l-6.3086 0 z M172.2815625 8.359000000000002 l-0.019531 0.078125 c2.1875 0 4.2383 0.41016 6.1719 1.25 s3.6328 1.9727 5.0977 3.3984 l-4.4922 4.4922 c-1.8945 -1.875 -4.1406 -2.8125 -6.7383 -2.8125 c-2.6367 0 -4.8828 0.9375 -6.7383 2.8125 s-2.793 4.1211 -2.793 6.7383 c0 2.6367 0.9375 4.8828 2.793 6.7383 s4.1016 2.793 6.7383 2.793 s4.8828 -0.9375 6.7578 -2.8125 l4.4922 4.4922 c-1.4648 1.4453 -3.1641 2.5781 -5.0977 3.418 s-3.9844 1.25 -6.1719 1.25 c-4.375 0 -8.125 -1.5625 -11.23 -4.668 s-4.668 -6.8555 -4.668 -11.23 s1.5625 -8.125 4.668 -11.25 s6.8555 -4.6875 11.23 -4.6875 z M206.76565625 8.515999999999998 l6.3086 0 l7.8711 0 l0 6.2891 l-7.8711 0 l0 25.195 l-6.3086 0 l0 -25.195 l-7.8711 0 l0 -6.2891 l7.8711 0 z M239.642890625 8.359000000000002 c4.375 0 8.125 1.5625 11.25 4.6875 s4.6875 6.875 4.6875 11.25 s-1.5625 8.125 -4.6875 11.23 s-6.875 4.668 -11.25 4.668 s-8.125 -1.5625 -11.23 -4.668 s-4.668 -6.8555 -4.668 -11.23 s1.5625 -8.125 4.668 -11.25 s6.8555 -4.6875 11.23 -4.6875 z M239.642890625 14.707 c-2.6367 0 -4.8828 0.9375 -6.7383 2.8125 s-2.793 4.1211 -2.793 6.7383 c0 2.6367 0.9375 4.8828 2.793 6.7383 s4.1016 2.793 6.7383 2.793 c2.6172 0 4.8633 -0.9375 6.7383 -2.793 s2.8125 -4.1016 2.8125 -6.7383 c0 -2.6172 -0.9375 -4.8633 -2.8125 -6.7383 s-4.1211 -2.8125 -6.7383 -2.8125 z M266.21096875 8.515999999999998 l6.3086 0 l7.8711 0 l0 6.2891 l-7.8711 0 l0 25.195 l-6.3086 0 l0 -25.195 l-7.8711 0 l0 -6.2891 l7.8711 0 z M289.010140625 29.59 l5.5664 0 l-2.7734 -6.543 z M286.431640625 35.1562 l-0.039063 -0.019531 c-0.70313 1.6016 -1.4258 3.1836 -2.1484 4.7852 l-6.7773 0 l14.277 -31.992 l14.316 31.992 l-6.7969 0 c-0.70313 -1.582 -1.4063 -3.1836 -2.1094 -4.7656 l-10.723 0 z M309.30859375 8.515999999999998 l6.3086 0 l0 25.176 l12.578 0 l0 6.3086 l-18.887 0 l0 -31.484 z M353.30471875 33.7891 l-0.019531 -0.039063 c1.7383 0 3.1836 -1.4453 3.1836 -3.1836 c0 -1.3477 -0.52734 -2.207 -1.6016 -2.5977 c-2.2656 -0.83984 -1.7188 -0.64453 -3.9258 -1.4063 c-2.3242 -0.80078 -4.4727 -2.3828 -5.918 -4.3555 c-0.85938 -1.1719 -1.2891 -2.6172 -1.2891 -4.3555 c0 -2.6172 0.9375 -4.8633 2.8125 -6.7383 s4.1211 -2.8125 6.7578 -2.8125 c2.6172 0 4.8633 0.9375 6.7383 2.8125 s2.8125 4.1211 2.8125 6.7383 l-6.3477 0 c0 -1.7188 -1.4453 -3.1641 -3.1641 -3.1641 c-1.7383 0 -3.1836 1.4453 -3.1836 3.1836 c0 1.1328 0.44922 1.9922 1.3672 2.5781 c1.875 1.2109 1.6602 0.97656 3.9063 1.6406 c2.4219 0.70313 4.6094 2.207 6.1133 4.1406 c0.87891 1.1328 1.3281 2.5977 1.3281 4.375 c0 2.6367 -0.9375 4.8828 -2.8125 6.7578 s-4.1211 2.8125 -6.7383 2.8125 c-2.6367 0 -4.8828 -0.9375 -6.7578 -2.8125 s-2.8125 -4.1211 -2.8125 -6.7578 l6.3672 0 c0 1.7578 1.4258 3.1836 3.1836 3.1836 z M366.611328125 8.515999999999998 l18.887 0 l0 6.2891 l-12.578 0 l0 6.3086 l9.4336 0 l0 6.2891 l-9.4336 0 l0 6.2891 l12.578 0 l0 6.3086 l-12.578 0 l-6.3086 0 l0 -31.484 z M389.2734375 40 l-0.019531 -31.523 l10.234 0 c3.0273 0 6.0156 1.0547 8.1836 3.2227 s3.0469 4.1992 3.0469 7.2266 l0 0.97656 c0 2.3438 -0.66406 4.0625 -1.9922 5.9375 s-2.4414 2.4219 -4.5117 3.2031 l7.1094 10.957 l-7.6953 0 l-8.0469 -12.305 l0 12.305 l-6.3086 0 z M395.5625375 23.633 l4.5117 0.019531 c1.3086 0 1.9727 -0.33203 2.8906 -1.25 s1.25 -1.9727 1.25 -3.2813 c0 -1.2891 -0.33203 -2.1484 -1.25 -3.0859 s-2.5586 -1.2695 -3.8672 -1.2695 l-3.5352 0 l0 8.8672 z M442.639109375 8.515999999999998 l-14.18 32.07 l-14.141 -32.07 l1.25 0 l4.1406 0 l0.25391 0 l1.0156 0 l7.4609 17.168 l7.4609 -17.168 l1.3281 0 l5.4102 0 z M445.828125 40 l0 -31.484 l6.3086 0 l0 31.484 l-6.3086 0 z M471.224921875 8.359000000000002 l-0.019531 0.078125 c2.1875 0 4.2383 0.41016 6.1719 1.25 s3.6328 1.9727 5.0977 3.3984 l-4.4922 4.4922 c-1.8945 -1.875 -4.1406 -2.8125 -6.7383 -2.8125 c-2.6367 0 -4.8828 0.9375 -6.7383 2.8125 s-2.793 4.1211 -2.793 6.7383 c0 2.6367 0.9375 4.8828 2.793 6.7383 s4.1016 2.793 6.7383 2.793 s4.8828 -0.9375 6.7578 -2.8125 l4.4922 4.4922 c-1.4648 1.4453 -3.1641 2.5781 -5.0977 3.418 s-3.9844 1.25 -6.1719 1.25 c-4.375 0 -8.125 -1.5625 -11.23 -4.668 s-4.668 -6.8555 -4.668 -11.23 s1.5625 -8.125 4.668 -11.25 s6.8555 -4.6875 11.23 -4.6875 z M485.6640625 8.515999999999998 l18.887 0 l0 6.2891 l-12.578 0 l0 6.3086 l9.4336 0 l0 6.2891 l-9.4336 0 l0 6.2891 l12.578 0 l0 6.3086 l-12.578 0 l-6.3086 0 l0 -31.484 z M517.681671875 33.7891 l-0.019531 -0.039063 c1.7383 0 3.1836 -1.4453 3.1836 -3.1836 c0 -1.3477 -0.52734 -2.207 -1.6016 -2.5977 c-2.2656 -0.83984 -1.7188 -0.64453 -3.9258 -1.4063 c-2.3242 -0.80078 -4.4727 -2.3828 -5.918 -4.3555 c-0.85938 -1.1719 -1.2891 -2.6172 -1.2891 -4.3555 c0 -2.6172 0.9375 -4.8633 2.8125 -6.7383 s4.1211 -2.8125 6.7578 -2.8125 c2.6172 0 4.8633 0.9375 6.7383 2.8125 s2.8125 4.1211 2.8125 6.7383 l-6.3477 0 c0 -1.7188 -1.4453 -3.1641 -3.1641 -3.1641 c-1.7383 0 -3.1836 1.4453 -3.1836 3.1836 c0 1.1328 0.44922 1.9922 1.3672 2.5781 c1.875 1.2109 1.6602 0.97656 3.9063 1.6406 c2.4219 0.70313 4.6094 2.207 6.1133 4.1406 c0.87891 1.1328 1.3281 2.5977 1.3281 4.375 c0 2.6367 -0.9375 4.8828 -2.8125 6.7578 s-4.1211 2.8125 -6.7383 2.8125 c-2.6367 0 -4.8828 -0.9375 -6.7578 -2.8125 s-2.8125 -4.1211 -2.8125 -6.7578 l6.3672 0 c0 1.7578 1.4258 3.1836 3.1836 3.1836 z"></path></g><g id="SvgjsG5124" featureKey="sloganFeature-0" transform="matrix(0.7431335207072798,0,0,0.7431335207072798,68.3976905280969,34.674732097673115)" fill="url(#SvgjsLinearGradient5132)"><path d="M6.4746 20.19531 c-2.9688 0 -5.2246 -1.4258 -5.6641 -3.9453 l2.6074 -0.60547 c0.23438 1.5918 1.4941 2.4512 3.1543 2.4512 c1.3086 0 2.4414 -0.55664 2.4316 -1.9336 c-0.019531 -1.4551 -1.6699 -1.8945 -3.457 -2.4121 c-2.0996 -0.625 -4.2773 -1.3477 -4.2773 -3.9258 c0 -2.5977 2.1289 -4.0039 4.8438 -4.0039 c2.4512 0 4.8242 1.0156 5.3711 3.584 l-2.4414 0.60547 c-0.29297 -1.4453 -1.377 -2.0996 -2.793 -2.0996 c-1.2598 0 -2.4219 0.53711 -2.4219 1.8652 c0 1.2207 1.4551 1.6113 3.1152 2.0801 c2.1484 0.625 4.6777 1.3965 4.6777 4.1895 c0 2.9199 -2.4512 4.1504 -5.1465 4.1504 z M25.180291015625002 20 l-1.0742 -3.0371 l-6.0352 0 l-1.0742 3.0371 l-2.6074 0 l5.1563 -13.994 l3.0859 0 l5.1465 13.994 l-2.5977 0 z M18.832291015625 14.814499999999999 l4.5117 0 l-2.2559 -6.377 z M39.54927890625 8.252 l-5.459 0 l0 3.6328 l4.7266 0 l0 2.2363 l-4.7266 0 l0 5.8789 l-2.5684 0 l0 -13.994 l8.0273 0 l0 2.2461 z M51.526173046875 8.252 l-5.3418 0 l0 3.6426 l4.7266 0 l0 2.2266 l-4.7266 0 l0 3.623 l5.3418 0 l0 2.2559 l-7.9102 0 l0 -13.994 l7.9102 0 l0 2.2461 z M63.9325953125 6.006 l0 2.2461 l-3.418 0 l0 11.748 l-2.5098 0 l0 -11.748 l-3.4277 0 l0 -2.2461 l9.3555 0 z M77.813236328125 6.006 l-4.5996 7.3047 l0 6.6895 l-2.5488 0 l0 -6.6602 l-4.6191 -7.334 l2.832 0 l3.0566 5.0684 l3.0664 -5.0684 l2.8125 0 z M101.757271484375 20.625 l-2.1582 0.79102 l-1.8359 -2.041 c-1.0352 0.53711 -2.2363 0.82031 -3.5449 0.82031 c-4.0918 0 -7.1582 -2.7832 -7.1582 -7.1973 s3.0664 -7.1777 7.1582 -7.1777 c4.082 0 7.1582 2.7637 7.1582 7.1777 c0 2.1094 -0.70313 3.8379 -1.875 5.0781 z M89.579871484375 12.998000000000001 c0 3.1738 2.0313 4.9609 4.6387 4.9609 s4.6289 -1.7871 4.6289 -4.9609 c0 -3.0371 -2.0215 -4.834 -4.6289 -4.834 s-4.6387 1.7969 -4.6387 4.834 z M110.9218875 20.19531 c-3.0078 0 -5.3516 -1.6309 -5.3516 -5.0098 l0 -9.1797 l2.5391 0 l0 8.8379 c0 2.1875 1.2305 3.0859 2.8125 3.0859 c1.5723 0 2.832 -0.9082 2.832 -3.0859 l0 -8.8379 l2.5293 0 l0 9.1797 c0 3.3789 -2.3438 5.0098 -5.3613 5.0098 z M130.535759765625 20 l-1.0742 -3.0371 l-6.0352 0 l-1.0742 3.0371 l-2.6074 0 l5.1563 -13.994 l3.0859 0 l5.1465 13.994 l-2.5977 0 z M124.187759765625 14.814499999999999 l4.5117 0 l-2.2559 -6.377 z M139.41654765625 17.7441 l4.541 0 l0 2.2559 l-7.0801 0 l0 -13.994 l2.5391 0 l0 11.738 z M147.770269921875 20 l0 -13.994 l2.5391 0 l0 13.994 l-2.5391 0 z M163.4579859375 6.006 l0 2.2461 l-3.418 0 l0 11.748 l-2.5098 0 l0 -11.748 l-3.4277 0 l0 -2.2461 l9.3555 0 z M177.33862695312502 6.006 l-4.5996 7.3047 l0 6.6895 l-2.5488 0 l0 -6.6602 l-4.6191 -7.334 l2.832 0 l3.0566 5.0684 l3.0664 -5.0684 l2.8125 0 z M195.472462109375 8.252 l-5.3418 0 l0 3.6426 l4.7266 0 l0 2.2266 l-4.7266 0 l0 3.623 l5.3418 0 l0 2.2559 l-7.9102 0 l0 -13.994 l7.9102 0 l0 2.2461 z M198.455074375 20 l5.459 -7.3047 l-5.2734 -6.6895 l3.0859 0 l3.6914 4.8633 l3.6816 -4.8633 l3.0859 0 l-5.2734 6.6895 l5.459 7.3047 l-3.2227 0 l-3.7305 -5.2734 l-3.7402 5.2734 l-3.2227 0 z M222.228753515625 20.19531 c-4.0625 0 -7.0898 -2.7734 -7.0898 -7.1973 c0 -4.4141 3.0273 -7.1777 7.0898 -7.1777 c2.998 0 5.4395 1.5234 6.4648 4.0723 l-2.3535 0.88867 c-0.69336 -1.6602 -2.2461 -2.6172 -4.1113 -2.6172 c-2.5684 0 -4.5703 1.7969 -4.5703 4.834 c0 3.0566 2.002 4.8438 4.5703 4.8438 c1.8652 0 3.418 -0.95703 4.1113 -2.6172 l2.3535 0.88867 c-1.0254 2.5488 -3.4668 4.082 -6.4648 4.082 z M240.62163203125 8.252 l-5.3418 0 l0 3.6426 l4.7266 0 l0 2.2266 l-4.7266 0 l0 3.623 l5.3418 0 l0 2.2559 l-7.9102 0 l0 -13.994 l7.9102 0 l0 2.2461 z M247.705854296875 17.7441 l4.541 0 l0 2.2559 l-7.0801 0 l0 -13.994 l2.5391 0 l0 11.738 z M258.5986765625 17.7441 l4.541 0 l0 2.2559 l-7.0801 0 l0 -13.994 l2.5391 0 l0 11.738 z M274.862598828125 8.252 l-5.3418 0 l0 3.6426 l4.7266 0 l0 2.2266 l-4.7266 0 l0 3.623 l5.3418 0 l0 2.2559 l-7.9102 0 l0 -13.994 l7.9102 0 l0 2.2461 z M288.91012109375 6.006 l2.5293 0 l0 13.994 l-2.8711 0 l-6.6406 -10.459 l0 10.459 l-2.5195 0 l0 -13.994 l2.8418 0 l6.6602 10.381 l0 -10.381 z M302.859124609375 20.19531 c-4.0625 0 -7.0898 -2.7734 -7.0898 -7.1973 c0 -4.4141 3.0273 -7.1777 7.0898 -7.1777 c2.998 0 5.4395 1.5234 6.4648 4.0723 l-2.3535 0.88867 c-0.69336 -1.6602 -2.2461 -2.6172 -4.1113 -2.6172 c-2.5684 0 -4.5703 1.7969 -4.5703 4.834 c0 3.0566 2.002 4.8438 4.5703 4.8438 c1.8652 0 3.418 -0.95703 4.1113 -2.6172 l2.3535 0.88867 c-1.0254 2.5488 -3.4668 4.082 -6.4648 4.082 z M321.252003125 8.252 l-5.3418 0 l0 3.6426 l4.7266 0 l0 2.2266 l-4.7266 0 l0 3.623 l5.3418 0 l0 2.2559 l-7.9102 0 l0 -13.994 l7.9102 0 l0 2.2461 z"></path></g>
			</g>
		</svg>
	